<?xml version="1.0" encoding="UTF-8" standalone="no"?><!DOCTYPE svg PUBLIC "-//W3C//DTD SVG 1.1//EN" "http://www.w3.org/Graphics/SVG/1.1/DTD/svg11.dtd"><svg width="256" height="256" viewBox="0 0 256 256" version="1.1" xmlns="http://www.w3.org/2000/svg" xmlns:xlink="http://www.w3.org/1999/xlink" xml:space="preserve" xmlns:serif="http://www.serif.com/" style="fill-rule:evenodd;clip-rule:evenodd;stroke-linejoin:round;stroke-miterlimit:2;"><g><path d="M128,51c-34.133,0 -55.467,17.067 -64,51.2c12.8,-17.067 27.733,-23.467 44.8,-19.2c9.737,2.434 16.697,9.499 24.401,17.318c12.55,12.739 27.074,27.482 58.799,27.482c34.133,0 55.467,-17.067 64,-51.2c-12.8,17.067 -27.733,23.467 -44.8,19.2c-9.737,-2.434 -16.697,-9.499 -24.401,-17.318c-12.55,-12.739 -27.074,-27.482 -58.799,-27.482Zm-64,76.8c-34.133,0 -55.467,17.067 -64,51.2c12.8,-17.067 27.733,-23.467 44.8,-19.2c9.737,2.434 16.697,9.499 24.401,17.318c12.55,12.739 27.074,27.482 58.799,27.482c34.133,0 55.467,-17.067 64,-51.2c-12.8,17.067 -27.733,23.467 -44.8,19.2c-9.737,-2.434 -16.697,-9.499 -24.401,-17.318c-12.55,-12.739 -27.074,-27.482 -58.799,-27.482Z" style="fill:url(#_Linear1);fill-rule:nonzero;"/></g><defs><linearGradient id="_Linear1" x1="0" y1="0" x2="1" y2="0" gradientUnits="userSpaceOnUse" gradientTransform="matrix(263.111,54.6133,-54.6133,263.111,-7.11111,100.152)"><stop offset="0" style="stop-color:#2298bd;stop-opacity:1"/><stop offset="1" style="stop-color:#0ed7b5;stop-opacity:1"/></linearGradient></defs></svg>
